<svg width="49" height="48" viewBox="0 0 49 48" fill="none" xmlns="http://www.w3.org/2000/svg">
<g clip-path="url(#clip0_2920_210)">
<path opacity="0.2" d="M33.333 13.5H9.33301C8.50458 13.5 7.83301 14.1716 7.83301 15V39C7.83301 39.8284 8.50458 40.5 9.33301 40.5H33.333C34.1614 40.5 34.833 39.8284 34.833 39V15C34.833 14.1716 34.1614 13.5 33.333 13.5Z" fill="black"/>
<path d="M25.833 22.5L40.833 7.5" stroke="black" stroke-width="2" stroke-linecap="round" stroke-linejoin="round"/>
<path d="M40.833 19.5L40.8311 7.50187L28.833 7.5" stroke="black" stroke-width="2" stroke-linecap="round" stroke-linejoin="round"/>
<path d="M34.833 25.5V39C34.833 39.3978 34.675 39.7794 34.3937 40.0607C34.1124 40.342 33.7308 40.5 33.333 40.5H9.33301C8.93518 40.5 8.55365 40.342 8.27235 40.0607C7.99104 39.7794 7.83301 39.3978 7.83301 39V15C7.83301 14.6022 7.99104 14.2206 8.27235 13.9393C8.55365 13.658 8.93518 13.5 9.33301 13.5H22.833" stroke="black" stroke-width="2" stroke-linecap="round" stroke-linejoin="round"/>
</g>
<defs>
<clipPath id="clip0_2920_210">
<rect width="48" height="48" fill="white" transform="translate(0.333008)"/>
</clipPath>
</defs>
</svg>
