<svg width="48" height="48" viewBox="0 0 48 48" fill="none" xmlns="http://www.w3.org/2000/svg">
<g clip-path="url(#clip0_2897_364)">
<path opacity="0.2" d="M12 39C16.1421 39 19.5 35.6421 19.5 31.5C19.5 27.3579 16.1421 24 12 24C7.85786 24 4.5 27.3579 4.5 31.5C4.5 35.6421 7.85786 39 12 39Z" fill="black"/>
<path opacity="0.2" d="M36 39C40.1421 39 43.5 35.6421 43.5 31.5C43.5 27.3579 40.1421 24 36 24C31.8579 24 28.5 27.3579 28.5 31.5C28.5 35.6421 31.8579 39 36 39Z" fill="black"/>
<path d="M19.5 16.5H28.5" stroke="black" stroke-width="2" stroke-linecap="round" stroke-linejoin="round"/>
<path d="M43.0481 28.935L34.8638 10.3125C34.0198 9.46869 32.8753 8.99463 31.6819 8.99463C30.4885 8.99463 29.3439 9.46869 28.5 10.3125V31.5" stroke="black" stroke-width="2" stroke-linecap="round" stroke-linejoin="round"/>
<path d="M19.5 31.5V10.3125C18.6561 9.46869 17.5116 8.99463 16.3182 8.99463C15.1247 8.99463 13.9802 9.46869 13.1363 10.3125L4.9519 28.935" stroke="black" stroke-width="2" stroke-linecap="round" stroke-linejoin="round"/>
<path d="M12 39C16.1421 39 19.5 35.6421 19.5 31.5C19.5 27.3579 16.1421 24 12 24C7.85786 24 4.5 27.3579 4.5 31.5C4.5 35.6421 7.85786 39 12 39Z" stroke="black" stroke-width="2" stroke-linecap="round" stroke-linejoin="round"/>
<path d="M36 39C40.1421 39 43.5 35.6421 43.5 31.5C43.5 27.3579 40.1421 24 36 24C31.8579 24 28.5 27.3579 28.5 31.5C28.5 35.6421 31.8579 39 36 39Z" stroke="black" stroke-width="2" stroke-linecap="round" stroke-linejoin="round"/>
</g>
<defs>
<clipPath id="clip0_2897_364">
<rect width="48" height="48" fill="white"/>
</clipPath>
</defs>
</svg>
