<svg width="25" height="24" viewBox="0 0 25 24" fill="none" xmlns="http://www.w3.org/2000/svg">
<g clip-path="url(#clip0_2701_2293)">
<path opacity="0.2" d="M20.75 8.25H4.25V4.5C4.25 4.30109 4.32902 4.11032 4.46967 3.96967C4.61032 3.82902 4.80109 3.75 5 3.75H20C20.1989 3.75 20.3897 3.82902 20.5303 3.96967C20.671 4.11032 20.75 4.30109 20.75 4.5V8.25Z" fill="black"/>
<path d="M20 3.75H5C4.58579 3.75 4.25 4.08579 4.25 4.5V19.5C4.25 19.9142 4.58579 20.25 5 20.25H20C20.4142 20.25 20.75 19.9142 20.75 19.5V4.5C20.75 4.08579 20.4142 3.75 20 3.75Z" stroke="black" stroke-width="2" stroke-linecap="round" stroke-linejoin="round"/>
<path d="M17 2.25V5.25" stroke="black" stroke-width="2" stroke-linecap="round" stroke-linejoin="round"/>
<path d="M8 2.25V5.25" stroke="black" stroke-width="2" stroke-linecap="round" stroke-linejoin="round"/>
<path d="M4.25 8.25H20.75" stroke="black" stroke-width="2" stroke-linecap="round" stroke-linejoin="round"/>
<path d="M14.75 14.25H10.25" stroke="black" stroke-width="2" stroke-linecap="round" stroke-linejoin="round"/>
<path d="M12.5 12V16.5" stroke="black" stroke-width="2" stroke-linecap="round" stroke-linejoin="round"/>
</g>
<defs>
<clipPath id="clip0_2701_2293">
<rect width="24" height="24" fill="white" transform="translate(0.5)"/>
</clipPath>
</defs>
</svg>
