<svg width="24" height="25" viewBox="0 0 24 25" fill="none" xmlns="http://www.w3.org/2000/svg">
<g id="mail">
<mask id="mask0_601_7545" style="mask-type:alpha" maskUnits="userSpaceOnUse" x="0" y="0" width="24" height="25">
<rect id="Bounding box" y="0.0333252" width="24" height="24" fill="#283660"/>
</mask>
<g mask="url(#mask0_601_7545)">
<path id="mail_2" d="M4 20.0333C3.45 20.0333 2.97917 19.8375 2.5875 19.4458C2.19583 19.0542 2 18.5833 2 18.0333V6.03333C2 5.48333 2.19583 5.01249 2.5875 4.62083C2.97917 4.22916 3.45 4.03333 4 4.03333H20C20.55 4.03333 21.0208 4.22916 21.4125 4.62083C21.8042 5.01249 22 5.48333 22 6.03333V18.0333C22 18.5833 21.8042 19.0542 21.4125 19.4458C21.0208 19.8375 20.55 20.0333 20 20.0333H4ZM12 13.0333L20 8.03333V6.03333L12 11.0333L4 6.03333V8.03333L12 13.0333Z" fill="#4F2683"/>
</g>
</g>
</svg>
