<svg width="18" height="22" viewBox="0 0 18 22" fill="none" xmlns="http://www.w3.org/2000/svg">
<path id="Vector" d="M17.2031 4.54285C17.6367 4.97644 18 5.84363 18 6.46472V19.9647C18 20.5858 17.4961 21.0897 16.875 21.0897H1.125C0.503906 21.0897 0 20.5858 0 19.9647V1.21472C0 0.593628 0.503906 0.0897217 1.125 0.0897217H11.625C12.2461 0.0897217 13.1133 0.453003 13.5469 0.886597L17.2031 4.54285ZM12 1.68347V6.08972H16.4062C16.3359 5.8905 16.2305 5.69128 16.1484 5.60925L12.4805 1.94128C12.3984 1.85925 12.1992 1.75378 12 1.68347ZM16.5 19.5897V7.58972H11.625C11.0039 7.58972 10.5 7.08582 10.5 6.46472V1.58972H1.5V19.5897H16.5ZM5.02734 16.8475V18.0897H8.32031V16.8475H7.44141L8.64844 14.9608C8.78906 14.7382 8.85938 14.5624 8.89453 14.5624H8.91797C8.92969 14.6093 8.95312 14.6444 8.97656 14.6796C9.02344 14.7733 9.09375 14.8436 9.17578 14.9608L10.4297 16.8475H9.53906V18.0897H12.9492V16.8475H12.1523L9.90234 13.6483L12.1875 10.3436H12.9727V9.08972H9.70312V10.3436H10.5703L9.36328 12.2069C9.22266 12.4296 9.11719 12.6053 9.11719 12.5936H9.09375C9.08203 12.5468 9.05859 12.5116 9.03516 12.4764C8.98828 12.3944 8.92969 12.3124 8.83594 12.2069L7.59375 10.3436H8.48438V9.08972H5.08594V10.3436H5.88281L8.09766 13.5311L5.82422 16.8475H5.02734Z" fill="#4F2683"/>
</svg>
