<svg width="25" height="24" viewBox="0 0 25 24" fill="none" xmlns="http://www.w3.org/2000/svg">
<g clip-path="url(#clip0_512_4834)">
<path opacity="0.2" d="M14.7498 14.25L22.4701 12.0938C22.6214 12.0474 22.7542 11.9543 22.8494 11.8279C22.9446 11.7015 22.9974 11.5482 23.0003 11.39C23.0031 11.2317 22.9557 11.0767 22.8651 10.9469C22.7744 10.8172 22.645 10.7195 22.4954 10.6678L5.9954 4.54782C5.86304 4.5028 5.72073 4.49568 5.58453 4.52725C5.44834 4.55882 5.32368 4.62783 5.22462 4.7265C5.12557 4.82516 5.05606 4.94955 5.02395 5.08562C4.99185 5.22169 4.99841 5.36403 5.0429 5.49657L11.1629 21.9966C11.2146 22.1462 11.3123 22.2755 11.442 22.3662C11.5717 22.4569 11.7268 22.5042 11.8851 22.5014C12.0433 22.4986 12.1966 22.4458 12.323 22.3506C12.4494 22.2554 12.5425 22.1226 12.5888 21.9713L14.7498 14.25Z" fill="black"/>
<path d="M14.7498 14.25L22.4701 12.0938C22.6214 12.0474 22.7542 11.9543 22.8494 11.8279C22.9446 11.7015 22.9974 11.5482 23.0003 11.39C23.0031 11.2317 22.9557 11.0767 22.8651 10.9469C22.7744 10.8172 22.645 10.7195 22.4954 10.6678L5.9954 4.54782C5.86304 4.5028 5.72073 4.49568 5.58453 4.52725C5.44834 4.55882 5.32368 4.62783 5.22462 4.7265C5.12557 4.82516 5.05606 4.94955 5.02395 5.08562C4.99185 5.22169 4.99841 5.36403 5.0429 5.49657L11.1629 21.9966C11.2146 22.1462 11.3123 22.2755 11.442 22.3662C11.5717 22.4569 11.7268 22.5042 11.8851 22.5014C12.0433 22.4986 12.1966 22.4458 12.323 22.3506C12.4494 22.2554 12.5425 22.1226 12.5888 21.9713L14.7498 14.25Z" stroke="black" stroke-width="2" stroke-linecap="round" stroke-linejoin="round"/>
</g>
<defs>
<clipPath id="clip0_512_4834">
<rect width="24" height="24" fill="white" transform="translate(0.5)"/>
</clipPath>
</defs>
</svg>
