<svg width="24" height="25" viewBox="0 0 24 25" fill="none" xmlns="http://www.w3.org/2000/svg">
<g id="call">
<mask id="mask0_715_343" style="mask-type:alpha" maskUnits="userSpaceOnUse" x="0" y="0" width="24" height="25">
<rect id="Bounding box" y="0.0333252" width="24" height="24" fill="#D9D9D9"/>
</mask>
<g mask="url(#mask0_715_343)">
<path id="call_2" d="M19.95 21.0333C17.8667 21.0333 15.8083 20.5792 13.775 19.6708C11.7417 18.7625 9.89167 17.475 8.225 15.8083C6.55833 14.1417 5.27083 12.2917 4.3625 10.2583C3.45417 8.22499 3 6.16666 3 4.08333C3 3.78333 3.1 3.53333 3.3 3.33333C3.5 3.13333 3.75 3.03333 4.05 3.03333H8.1C8.33333 3.03333 8.54167 3.11249 8.725 3.27083C8.90833 3.42916 9.01667 3.61666 9.05 3.83333L9.7 7.33333C9.73333 7.59999 9.725 7.82499 9.675 8.00833C9.625 8.19166 9.53333 8.34999 9.4 8.48333L6.975 10.9333C7.30833 11.55 7.70417 12.1458 8.1625 12.7208C8.62083 13.2958 9.125 13.85 9.675 14.3833C10.1917 14.9 10.7333 15.3792 11.3 15.8208C11.8667 16.2625 12.4667 16.6667 13.1 17.0333L15.45 14.6833C15.6 14.5333 15.7958 14.4208 16.0375 14.3458C16.2792 14.2708 16.5167 14.25 16.75 14.2833L20.2 14.9833C20.4333 15.05 20.625 15.1708 20.775 15.3458C20.925 15.5208 21 15.7167 21 15.9333V19.9833C21 20.2833 20.9 20.5333 20.7 20.7333C20.5 20.9333 20.25 21.0333 19.95 21.0333Z" fill="#4F2683"/>
</g>
</g>
</svg>
