<svg width="37" height="37" viewBox="0 0 37 37" fill="none" xmlns="http://www.w3.org/2000/svg">
<path id="Vector" d="M18.4998 0C28.701 0 37 8.29894 37 18.5006C37 28.7008 28.701 37 18.4998 37C8.2987 37 0 28.7008 0 18.5006C0 8.29894 8.2987 0 18.4998 0ZM12.9206 18.7822L21.1923 27.0536C21.3426 27.2041 21.6083 27.2041 21.7589 27.0536L22.4322 26.3811C22.5879 26.2249 22.5876 25.9702 22.4319 25.814L15.3122 18.6953C15.2588 18.6413 15.2285 18.5678 15.2285 18.4904C15.2285 18.4142 15.2591 18.3401 15.3122 18.2865L22.419 11.18C22.494 11.105 22.536 11.0043 22.536 10.8957C22.536 10.7892 22.4943 10.6878 22.4193 10.6135L21.7469 9.94043C21.6716 9.86545 21.5705 9.82376 21.4634 9.82376C21.3558 9.82316 21.2556 9.86545 21.1803 9.94043L12.9206 18.1998C12.8441 18.276 12.8027 18.3776 12.8042 18.4949C12.8027 18.6041 12.8441 18.706 12.9206 18.7822Z" fill="#E0D3EA" fill-opacity="0.3"/>
</svg>
