<svg width="37" height="37" viewBox="0 0 37 37" fill="none" xmlns="http://www.w3.org/2000/svg">
<path id="Vector" d="M18.5004 0C8.29925 0 0.000244141 8.29894 0.000244141 18.5006C0.000244141 28.7008 8.29925 37 18.5004 37C28.7015 37 37.0002 28.7008 37.0002 18.5006C37.0002 8.29894 28.7015 0 18.5004 0ZM24.0797 18.7822L15.8079 27.0536C15.6577 27.2041 15.3919 27.2041 15.2414 27.0536L14.568 26.3811C14.4124 26.2249 14.4127 25.9702 14.5683 25.814L21.688 18.6953C21.7414 18.6413 21.7717 18.5678 21.7717 18.4904C21.7717 18.4142 21.7411 18.3401 21.688 18.2865L14.5812 11.18C14.5063 11.105 14.4643 11.0043 14.4643 10.8957C14.4643 10.7892 14.506 10.6878 14.5809 10.6135L15.2534 9.94043C15.3287 9.86545 15.4297 9.82376 15.5368 9.82376C15.6445 9.82316 15.7447 9.86545 15.8199 9.94043L24.0797 18.1998C24.1561 18.276 24.1975 18.3776 24.196 18.4949C24.1975 18.6041 24.1561 18.706 24.0797 18.7822Z" fill="#E0D3EA" fill-opacity="0.3"/>
</svg>
