<svg width="49" height="48" viewBox="0 0 49 48" fill="none" xmlns="http://www.w3.org/2000/svg">
<g clip-path="url(#clip0_512_3511)">
<path opacity="0.2" d="M27.3333 34.5H42.3333L34.8333 19.5L27.3333 34.5Z" fill="black"/>
<path opacity="0.2" d="M18.3333 23.9175C16.4434 22.2307 14.9318 20.1631 13.8978 17.8507C12.8637 15.5382 12.3305 13.0331 12.3333 10.5H24.3333C24.336 13.0331 23.8028 15.5382 22.7688 17.8507C21.7347 20.1631 20.2231 22.2307 18.3333 23.9175Z" fill="black"/>
<path d="M45.3276 40.5L34.8276 19.5L24.3276 40.5" stroke="black" stroke-width="2" stroke-linecap="round" stroke-linejoin="round"/>
<path d="M27.3276 34.5H42.3276" stroke="black" stroke-width="2" stroke-linecap="round" stroke-linejoin="round"/>
<path d="M18.3276 6V10.5" stroke="black" stroke-width="2" stroke-linecap="round" stroke-linejoin="round"/>
<path d="M6.32764 10.5H30.3276" stroke="black" stroke-width="2" stroke-linecap="round" stroke-linejoin="round"/>
<path d="M24.3333 10.5C24.3333 15.2739 22.4368 19.8523 19.0612 23.2279C15.6855 26.6036 11.1071 28.5 6.33325 28.5" stroke="black" stroke-width="2" stroke-linecap="round" stroke-linejoin="round"/>
<path d="M13.3533 16.5C14.5946 20.0109 16.8943 23.0505 19.9354 25.1997C22.9765 27.3489 26.6094 28.502 30.3333 28.5" stroke="black" stroke-width="2" stroke-linecap="round" stroke-linejoin="round"/>
</g>
<defs>
<clipPath id="clip0_512_3511">
<rect width="48" height="48" fill="white" transform="translate(0.333252)"/>
</clipPath>
</defs>
</svg>
