<svg width="49" height="48" viewBox="0 0 49 48" fill="none" xmlns="http://www.w3.org/2000/svg">
<g clip-path="url(#clip0_512_3532)">
<path opacity="0.2" d="M16.4165 30C21.8013 30 26.1665 25.6348 26.1665 20.25C26.1665 14.8652 21.8013 10.5 16.4165 10.5C11.0317 10.5 6.6665 14.8652 6.6665 20.25C6.6665 25.6348 11.0317 30 16.4165 30Z" fill="black"/>
<path d="M2.58472 37.5C4.08301 35.1963 6.13296 33.3033 8.54846 31.9929C10.964 30.6825 13.6685 29.9961 16.4166 29.9961C19.1647 29.9961 21.8692 30.6825 24.2847 31.9929C26.7002 33.3033 28.7502 35.1963 30.2485 37.5" stroke="black" stroke-width="2" stroke-linecap="round" stroke-linejoin="round"/>
<path d="M32.9165 30C35.6644 29.9984 38.3692 30.6837 40.7849 31.9935C43.2005 33.3033 45.2505 35.1962 46.7484 37.5" stroke="black" stroke-width="2" stroke-linecap="round" stroke-linejoin="round"/>
<path d="M16.4165 30C21.8013 30 26.1665 25.6348 26.1665 20.25C26.1665 14.8652 21.8013 10.5 16.4165 10.5C11.0317 10.5 6.6665 14.8652 6.6665 20.25C6.6665 25.6348 11.0317 30 16.4165 30Z" stroke="black" stroke-width="2" stroke-linecap="round" stroke-linejoin="round"/>
<path d="M29.2959 11.1937C30.6296 10.6618 32.0644 10.431 33.4976 10.5179C34.9309 10.6047 36.3273 11.007 37.587 11.6961C38.8467 12.3852 39.9387 13.344 40.7849 14.5041C41.6311 15.6641 42.2107 16.9968 42.4821 18.4068C42.7536 19.8167 42.7102 21.2693 42.3552 22.6606C42.0002 24.0519 41.3423 25.3476 40.4284 26.4552C39.5146 27.5627 38.3674 28.4548 37.0689 29.0675C35.7703 29.6803 34.3524 29.9987 32.9165 30" stroke="black" stroke-width="2" stroke-linecap="round" stroke-linejoin="round"/>
</g>
<defs>
<clipPath id="clip0_512_3532">
<rect width="48" height="48" fill="white" transform="translate(0.666504)"/>
</clipPath>
</defs>
</svg>
